# xmcd CD database file
#
# Track frame offsets:
#	150
#	7519
#	21465
#	35250
#	46702
#	64786
#	77327
#	91432
#	100460
#	113705
#	125917
#	139879
#
# Disc length: 1918 seconds
#
# Revision: 0
# Processed by: cddbd v1.5.2PL0 Copyright (c) Steve Scherf et al.
# Submitted via: Feurio! 1.68 - http://www.feurio.com
#
DISCID=92077c0c
DTITLE=Johnny Cash - From Sea To Shining Sea
DYEAR=1900
DGENRE=
TTITLE0=From Sea to Shining Sea
TTITLE1=The Whirl and the Suck
TTITLE2=Call Daddy From the Mine
TTITLE3=Frozen 400 Pounds Fair
TTITLE4=The Walls Of A Prison
TTITLE5=The Masterpiece
TTITLE6=You and Tennessee
TTITLE7=Another Song to Sing
TTITLE8=The Flint Arrowhead
TTITLE9=Cisco Clifton's Filling Station
TTITLE10=Shrimpin Sailin
TTITLE11=From Sea To Shining Sea (finale)
EXTD=
EXTT0=
EXTT1=
EXTT2=
EXTT3=
EXTT4=
EXTT5=
EXTT6=
EXTT7=
EXTT8=
EXTT9=
EXTT10=
EXTT11=
PLAYORDER=
